<svg version="1.1" viewBox="0.0 0.0 128.0 128.0" fill="none" stroke="none" stroke-linecap="square" stroke-miterlimit="10" xmlns:xlink="http://www.w3.org/1999/xlink" xmlns="http://www.w3.org/2000/svg"><clipPath id="p.0"><path d="m0 0l128.0 0l0 128.0l-128.0 0l0 -128.0z" clip-rule="nonzero"/></clipPath><g clip-path="url(#p.0)"><path fill="#000000" fill-opacity="0.0" d="m0 0l128.0 0l0 128.0l-128.0 0z" fill-rule="evenodd"/><path fill="#000000" fill-opacity="0.0" d="m30.393702 16.0l67.2126 0l0 96.0l-67.2126 0z" fill-rule="evenodd"/><path stroke="#ff9900" stroke-width="1.0" stroke-linejoin="round" stroke-linecap="butt" d="m30.393702 16.0l67.2126 0l0 96.0l-67.2126 0z" fill-rule="evenodd"/><path fill="#ff9900" d="m40.0 49.923885l0 0c0 -13.254833 10.745167 -24.0 24.0 -24.0l0 0c6.365196 0 12.469688 2.5285625 16.970566 7.029438c4.5008698 4.5008698 7.029434 10.605366 7.029434 16.970562l0 0c0 13.254833 -10.745163 23.999996 -24.0 23.999996l0 0c-13.254833 0 -24.0 -10.745163 -24.0 -23.999996zm18.981121 0c0 2.7718506 2.2470284 5.018879 5.018879 5.018879c2.7718506 0 5.0188828 -2.2470284 5.0188828 -5.018879c0 -2.7718506 -2.2470322 -5.018879 -5.0188828 -5.018879l0 0c-2.7718506 0 -5.018879 2.2470284 -5.018879 5.018879z" fill-rule="evenodd"/><path fill="#ff9900" d="m42.615864 90.05161l26.048847 -22.713448l-14.608154 31.663368z" fill-rule="evenodd"/><path stroke="#f9cb9c" stroke-width="1.0" stroke-linejoin="round" stroke-linecap="butt" d="m42.615864 90.05161l26.048847 -22.713448l-14.608154 31.663368z" fill-rule="evenodd"/><path fill="#ff9900" d="m40.00124 95.5232l0 0c0 -4.0745544 3.2278175 -7.37764 7.20953 -7.37764l0 0c1.9120827 0 3.7458572 0.77729034 5.097904 2.1608658c1.352047 1.3835754 2.1116219 3.2601013 2.1116219 5.216774l0 0c0 4.0745544 -3.2278137 7.37764 -7.209526 7.37764l0 0c-3.9817123 0 -7.20953 -3.3030853 -7.20953 -7.37764z" fill-rule="evenodd"/><path stroke="#f9cb9c" stroke-width="1.0" stroke-linejoin="round" stroke-linecap="butt" d="m40.00124 95.5232l0 0c0 -4.0745544 3.2278175 -7.37764 7.20953 -7.37764l0 0c1.9120827 0 3.7458572 0.77729034 5.097904 2.1608658c1.352047 1.3835754 2.1116219 3.2601013 2.1116219 5.216774l0 0c0 4.0745544 -3.2278137 7.37764 -7.209526 7.37764l0 0c-3.9817123 0 -7.20953 -3.3030853 -7.20953 -7.37764z" fill-rule="evenodd"/></g></svg>